HIERARCHY
ROOT hip
{
  OFFSET 0 0 0
  CHANNELS 6 Xposition Yposition Zposition Zrotation Yrotation Xrotation
  JOINT abdomen
  {
    OFFSET 0 20.6881 -0.73152
    CHANNELS 3 Zrotation Xrotation Yrotation
    JOINT chest
    {
      OFFSET 0 11.7043 -0.48768
      CHANNELS 3 Zrotation Xrotation Yrotation
      JOINT neck
      {
        OFFSET 0 22.1894 -2.19456
        CHANNELS 3 Zrotation Xrotation Yrotation
        JOINT head
        {
          OFFSET -0.24384 7.07133 1.2192
          CHANNELS 3 Zrotation Xrotation Yrotation
          JOINT leftEye
          {
            OFFSET 4.14528 8.04674 8.04672
            CHANNELS 3 Zrotation Xrotation Yrotation
            End Site
            {
              OFFSET 1 0 0
            }
          }
          JOINT rightEye
          {
            OFFSET -3.6576 8.04674 8.04672
            CHANNELS 3 Zrotation Xrotation Yrotation
            End Site
            {
              OFFSET 1 0 0
            }
          }
        }
      }
      JOINT rCollar
      {
        OFFSET -2.68224 19.2634 -4.8768
        CHANNELS 3 Zrotation Xrotation Yrotation
        JOINT rShldr
        {
          OFFSET -8.77824 -1.95073 1.46304
          CHANNELS 3 Zrotation Xrotation Yrotation
          JOINT rForeArm
          {
            OFFSET -28.1742 -1.7115 0.48768
            CHANNELS 3 Zrotation Xrotation Yrotation
            JOINT rHand
            {
              OFFSET -22.5879 0.773209 7.07136
              CHANNELS 3 Zrotation Xrotation Yrotation
              JOINT rThumb1
              {
                OFFSET -1.2192 -0.487915 3.41376
                CHANNELS 3 Zrotation Xrotation Yrotation
                JOINT rThumb2
                {
                  OFFSET -3.37035 -0.52449 3.41376
                  CHANNELS 3 Zrotation Xrotation Yrotation
                  End Site
                  {
                    OFFSET -1.78271 -1.18214 1.43049
                  }
                }
              }
              JOINT rIndex1
              {
                OFFSET -7.75947 0.938293 5.60832
                CHANNELS 3 Zrotation Xrotation Yrotation
                JOINT rIndex2
                {
                  OFFSET -2.54057 -0.884171 1.56538
                  CHANNELS 3 Zrotation Xrotation Yrotation
                  End Site
                  {
                    OFFSET -1.62519 -0.234802 1.16502
                  }
                }
              }
              JOINT rMid1
              {
                OFFSET -8.24714 1.18213 3.41376
                CHANNELS 3 Zrotation Xrotation Yrotation
                JOINT rMid2
                {
                  OFFSET -3.10165 -0.590103 1.0647
                  CHANNELS 3 Zrotation Xrotation Yrotation
                  End Site
                  {
                    OFFSET -2.48547 -0.328903 0.83742
                  }
                }
              }
              JOINT rRing1
              {
                OFFSET -8.82822 0.546677 1.51678
                CHANNELS 3 Zrotation Xrotation Yrotation
                JOINT rRing2
                {
                  OFFSET -2.60934 -0.819778 -0.0198488
                  CHANNELS 3 Zrotation Xrotation Yrotation
                  End Site
                  {
                    OFFSET -2.33842 -0.294052 0.168128
                  }
                }
              }
              JOINT rPinky1
              {
                OFFSET -8.27202 -0.0477905 -0.4584
                CHANNELS 3 Zrotation Xrotation Yrotation
                JOINT rPinky2
                {
                  OFFSET -1.82734 -0.647385 -0.700984
                  CHANNELS 3 Zrotation Xrotation Yrotation
                  End Site
                  {
                    OFFSET -1.69225 -0.51767 -0.607171
                  }
                }
              }
            }
          }
        }
      }
      JOINT lCollar
      {
        OFFSET 2.68224 19.2634 -4.8768
        CHANNELS 3 Zrotation Xrotation Yrotation
        JOINT lShldr
        {
          OFFSET 8.77824 -1.95073 1.46304
          CHANNELS 3 Zrotation Xrotation Yrotation
          JOINT lForeArm
          {
            OFFSET 28.1742 -1.7115 0.48768
            CHANNELS 3 Zrotation Xrotation Yrotation
            JOINT lHand
            {
              OFFSET 22.5879 0.773209 7.07136
              CHANNELS 3 Zrotation Xrotation Yrotation
              JOINT lThumb1
              {
                OFFSET 1.2192 -0.487915 3.41376
                CHANNELS 3 Zrotation Xrotation Yrotation
                JOINT lThumb2
                {
                  OFFSET 3.37035 -0.52449 3.41376
                  CHANNELS 3 Zrotation Xrotation Yrotation
                  End Site
                  {
                    OFFSET 1.78271 -1.18214 1.43049
                  }
                }
              }
              JOINT lIndex1
              {
                OFFSET 7.75947 0.938293 5.60832
                CHANNELS 3 Zrotation Xrotation Yrotation
                JOINT lIndex2
                {
                  OFFSET 2.54057 -0.884171 1.56538
                  CHANNELS 3 Zrotation Xrotation Yrotation
                  End Site
                  {
                    OFFSET 1.62519 -0.234802 1.16502
                  }
                }
              }
              JOINT lMid1
              {
                OFFSET 8.24714 1.18213 3.41376
                CHANNELS 3 Zrotation Xrotation Yrotation
                JOINT lMid2
                {
                  OFFSET 3.10165 -0.590103 1.0647
                  CHANNELS 3 Zrotation Xrotation Yrotation
                  End Site
                  {
                    OFFSET 2.48547 -0.328903 0.83742
                  }
                }
              }
              JOINT lRing1
              {
                OFFSET 8.82822 0.546677 1.51678
                CHANNELS 3 Zrotation Xrotation Yrotation
                JOINT lRing2
                {
                  OFFSET 2.60934 -0.819778 -0.0198488
                  CHANNELS 3 Zrotation Xrotation Yrotation
                  End Site
                  {
                    OFFSET 2.33842 -0.294052 0.168128
                  }
                }
              }
              JOINT lPinky1
              {
                OFFSET 8.27202 -0.0477905 -0.4584
                CHANNELS 3 Zrotation Xrotation Yrotation
                JOINT lPinky2
                {
                  OFFSET 1.82734 -0.647385 -0.700984
                  CHANNELS 3 Zrotation Xrotation Yrotation
                  End Site
                  {
                    OFFSET 1.69225 -0.51767 -0.607171
                  }
                }
              }
            }
          }
        }
      }
    }
  }
  JOINT rButtock
  {
    OFFSET -8.77824 4.35084 1.2192
    CHANNELS 3 Zrotation Xrotation Yrotation
    JOINT rThigh
    {
      OFFSET 0 -1.70687 -2.19456
      CHANNELS 3 Zrotation Xrotation Yrotation
      JOINT rShin
      {
        OFFSET 0 -36.8199 0.73152
        CHANNELS 3 Zrotation Xrotation Yrotation
        JOINT rFoot
        {
          OFFSET 0.73152 -45.1104 -5.12064
          CHANNELS 3 Zrotation Xrotation Yrotation
          End Site
          {
            OFFSET -1.1221 -3.69964 12.103
          }
        }
      }
    }
  }
  JOINT lButtock
  {
    OFFSET 8.77824 4.35084 1.2192
    CHANNELS 3 Zrotation Xrotation Yrotation
    JOINT lThigh
    {
      OFFSET 0 -1.70687 -2.19456
      CHANNELS 3 Zrotation Xrotation Yrotation
      JOINT lShin
      {
        OFFSET 0 -36.8199 0.73152
        CHANNELS 3 Zrotation Xrotation Yrotation
        JOINT lFoot
        {
          OFFSET -0.73152 -45.1104 -5.12064
          CHANNELS 3 Zrotation Xrotation Yrotation
          End Site
          {
            OFFSET 1.1221 -3.69964 12.103
          }
        }
      }
    }
  }
}
MOTION
Frames:	7
Frame Time:	0.00833333
40.9354 83.9909 -86.2816 -40.0902 13.333 94.6238 -9.61853 10.0806 -3.39286 -4.76755 -6.26386 -1.51321 6.14678 15.6007 -2.5683 -30.431 -77.4623 -32.941 -0.0 0.0 0.0 -0.0 0.0 0.0 -1.70197e-13 1.47514e-12 -9.21642e-13 -0.177646 -61.4616 61.0163 -20.8511 -14.1213 40.7885 -0.089465 -8.42549 -1.19243 1.51289e-09 -4.1438e-09 -4.48842e-09 2.64311e-09 -7.13027e-09 -7.77416e-09 1.51288e-09 -4.1438e-09 -4.48844e-09 7.73091 5.47488 0.417314 1.51289e-09 -4.1438e-09 -4.48842e-09 2.90554 0.965183 0.102902 1.51289e-09 -4.1438e-09 -4.48842e-09 10.2786 0.731801 0.0259123 1.51288e-09 -4.1438e-09 -4.48841e-09 2.22167 -0.733487 -0.20892 -1.70353e-13 1.47515e-12 -9.21928e-13 -24.1792 -42.5133 -67.7718 14.5939 -7.48258 -26.6776 0.689051 -22.6091 3.36075 6.82006e-10 6.70097e-09 -2.63374e-10 1.20502e-09 1.16364e-08 -4.56142e-10 6.81996e-10 6.70097e-09 -2.6337e-10 -7.73091 5.47488 -0.417314 6.82008e-10 6.70096e-09 -2.63376e-10 -2.90554 0.965183 -0.102902 6.81998e-10 6.70097e-09 -2.63376e-10 -10.2786 0.731801 -0.0259123 6.82011e-10 6.70097e-09 -2.63387e-10 -2.22167 -0.733487 0.20892 -2.03217e-16 0.0 -3.88251e-19 -5.55321 -1.81991 -0.407413 0.00763988 13.9447 0.447705 12.8259 22.7373 -32.3973 2.03217e-16 0.0 3.88251e-19 118.573 -52.0484 82.0262 0.468333 46.4486 -1.0218 -4.96017 -22.28 -9.86406
40.6552 85.1557 -84.2168 -40.9027 15.3528 96.0922 -9.12792 9.31676 -3.6203 -4.82241 -6.0274 -1.52904 5.38097 15.1217 -2.98505 -29.9695 -77.7015 -33.9249 -0.0 0.0 0.0 -0.0 0.0 0.0 -1.33539e-13 1.69842e-12 -1.31426e-12 0.0020743 -61.8276 61.7381 -20.8685 -14.1448 40.8324 -0.051978 -6.49242 -0.916414 2.48313e-09 -1.04386e-09 -5.62404e-09 4.34025e-09 -1.73085e-09 -9.73224e-09 2.48313e-09 -1.04385e-09 -5.62406e-09 7.73091 5.47488 0.417314 2.48313e-09 -1.04386e-09 -5.62404e-09 2.90554 0.965183 0.102902 2.48314e-09 -1.04386e-09 -5.62404e-09 10.2786 0.731801 0.0259123 2.48313e-09 -1.04386e-09 -5.62403e-09 2.22167 -0.733487 -0.20892 -1.33735e-13 1.69842e-12 -1.31456e-12 -23.29 -42.7163 -66.6276 15.2856 -8.04001 -28.1785 0.64813 -22.2466 3.29558 9.90275e-10 7.66319e-09 2.77475e-10 1.73367e-09 1.33002e-08 4.82233e-10 9.90269e-10 7.66319e-09 2.77478e-10 -7.73091 5.47488 -0.417314 9.90277e-10 7.66319e-09 2.77472e-10 -2.90554 0.965183 -0.102902 9.90266e-10 7.66319e-09 2.77473e-10 -10.2786 0.731801 -0.0259123 9.90279e-10 7.66319e-09 2.77462e-10 -2.22167 -0.733487 0.20892 -2.03217e-16 0.0 -3.88251e-19 -6.12442 -0.509503 -0.0972685 -0.00326445 14.0954 0.372324 13.1059 22.7232 -33.1264 2.03217e-16 0.0 3.88251e-19 116.744 -51.1456 76.7918 0.353832 42.0888 -0.898456 -3.82627 -22.8959 -7.20385
40.3415 86.4444 -82.1206 -41.602 17.6915 97.7107 -8.73044 8.40807 -3.98712 -4.77195 -5.81365 -1.57922 3.699 14.6694 -3.39398 -24.4401 -77.695 -30.4438 -0.0 0.0 0.0 -0.0 0.0 0.0 1.51498e-13 1.00408e-12 -9.36691e-13 0.691352 -62.1987 62.9366 -20.8512 -14.1215 40.7887 -0.0157284 -4.29261 -0.604539 2.21447e-09 2.66421e-09 -3.06594e-09 3.87416e-09 4.68367e-09 -5.29824e-09 2.21447e-09 2.66422e-09 -3.06596e-09 7.73091 5.47488 0.417314 2.21447e-09 2.66422e-09 -3.06594e-09 2.90554 0.965183 0.102902 2.21447e-09 2.66421e-09 -3.06594e-09 10.2786 0.731801 0.0259123 2.21447e-09 2.66421e-09 -3.06593e-09 2.22167 -0.733487 -0.20892 1.5129e-13 1.00408e-12 -9.36994e-13 -24.8393 -43.0692 -67.5241 15.652 -8.34018 -28.9956 0.477087 -19.8356 2.895 1.00449e-09 3.53577e-09 3.45959e-10 1.74711e-09 6.14485e-09 6.06562e-10 1.00448e-09 3.53578e-09 3.45964e-10 -7.73091 5.47488 -0.417314 1.00449e-09 3.53577e-09 3.45956e-10 -2.90554 0.965183 -0.102902 1.00448e-09 3.53577e-09 3.45957e-10 -10.2786 0.731801 -0.0259123 1.00449e-09 3.53577e-09 3.45947e-10 -2.22167 -0.733487 0.20892 -2.03217e-16 0.0 -3.88251e-19 -6.61682 0.623278 0.205216 -0.0174287 14.3084 0.275992 13.1114 22.0634 -34.1804 2.03217e-16 0.0 3.88251e-19 113.908 -49.8831 67.2826 0.25437 36.415 -0.802636 -2.57802 -26.3394 -3.8769
40.0666 87.7685 -79.9652 -42.173 19.6629 99.255 -8.41042 7.41389 -4.44455 -4.64833 -5.61169 -1.65297 1.35444 14.2082 -3.81253 -15.4451 -77.3904 -23.9744 -0.0 0.0 0.0 -0.0 0.0 0.0 6.05219e-13 -2.86897e-13 -8.86114e-14 1.77354 -62.6376 64.4535 -20.8068 -14.0615 40.6762 0.00749131 -1.87488 -0.263612 1.25266e-09 7.38266e-09 1.8041e-09 2.19822e-09 1.28276e-08 3.13794e-09 1.25266e-09 7.38267e-09 1.80408e-09 7.73091 5.47488 0.417314 1.25266e-09 7.38266e-09 1.80409e-09 2.90554 0.965183 0.102902 1.25266e-09 7.38266e-09 1.80409e-09 10.2786 0.731801 0.0259123 1.25265e-09 7.38266e-09 1.8041e-09 2.22167 -0.733487 -0.20892 6.05015e-13 -2.86897e-13 -8.89158e-14 -28.2235 -43.5729 -69.9709 15.8148 -8.48585 -29.3433 0.282096 -15.9562 2.28777 8.52757e-10 -3.89462e-09 1.75946e-10 1.46827e-09 -6.73466e-09 3.20657e-10 8.52747e-10 -3.89462e-09 1.75953e-10 -7.73091 5.47488 -0.417314 8.52758e-10 -3.89462e-09 1.75942e-10 -2.90554 0.965183 -0.102902 8.52749e-10 -3.89462e-09 1.75942e-10 -10.2786 0.731801 -0.0259123 8.52761e-10 -3.89462e-09 1.75933e-10 -2.22167 -0.733487 0.20892 -2.03217e-16 0.0 -3.88251e-19 -7.03858 1.61913 0.491765 -0.0334676 14.5689 0.163717 12.8835 20.9378 -35.4851 2.03217e-16 0.0 3.88251e-19 111.355 -46.7959 55.4912 0.169597 29.711 -0.730179 -0.576828 -31.6354 0.257326
39.7558 89.1029 -77.6333 -42.5439 21.6333 100.781 -8.08789 6.38729 -4.89874 -4.57544 -5.41549 -1.73325 -0.782203 13.9093 -4.26521 -7.60536 -76.9156 -18.5674 -0.0 0.0 0.0 -0.0 0.0 0.0 9.94135e-13 -1.54912e-12 7.8059e-13 2.77189 -63.1101 65.6879 -20.7484 -13.9831 40.5293 0.00872161 0.430687 0.060581 1.47044e-10 1.11238e-08 6.47285e-09 2.69711e-10 1.92737e-08 1.12239e-08 1.47048e-10 1.11238e-08 6.47283e-09 7.73091 5.47488 0.417314 1.47044e-10 1.11238e-08 6.47284e-09 2.90554 0.965183 0.102902 1.47048e-10 1.11238e-08 6.47284e-09 10.2786 0.731801 0.0259123 1.47033e-10 1.11238e-08 6.47285e-09 2.22167 -0.733487 -0.20892 9.93937e-13 -1.54912e-12 7.80288e-13 -32.233 -44.0501 -73.3109 15.8105 -8.49564 -29.3076 0.144362 -11.5228 1.63288 6.2803e-10 -1.0952e-08 -1.04927e-11 1.0648e-09 -1.89679e-08 5.06863e-12 6.28016e-10 -1.0952e-08 -1.04822e-11 -7.73091 5.47488 -0.417314 6.28031e-10 -1.0952e-08 -1.04958e-11 -2.90554 0.965183 -0.102902 6.28024e-10 -1.0952e-08 -1.04985e-11 -10.2786 0.731801 -0.0259123 6.28034e-10 -1.0952e-08 -1.0505e-11 -2.22167 -0.733487 0.20892 -2.03217e-16 0.0 -3.88251e-19 -7.41874 2.62147 0.77663 -0.0464784 14.7335 0.0715781 12.6847 19.9414 -36.7166 2.03217e-16 0.0 3.88251e-19 110.007 -43.6497 47.9883 0.0937844 23.1268 -0.620844 2.25067 -33.9955 4.93822
39.3665 90.5757 -75.2952 -42.6747 23.944 102.398 -7.67471 5.38108 -5.25664 -4.67738 -5.219 -1.80304 -1.83497 13.9432 -4.77758 -4.71145 -76.6716 -17.4765 -0.0 0.0 0.0 -0.0 0.0 0.0 1.08476e-12 -2.15721e-12 1.22153e-12 3.16009 -63.6071 65.9903 -20.69 -13.905 40.3823 -0.00645814 2.29394 0.322567 -5.5302e-10 1.18998e-08 8.42711e-09 -9.54046e-10 2.05951e-08 1.46072e-08 -5.53013e-10 1.18998e-08 8.42709e-09 7.73091 5.47488 0.417314 -5.53019e-10 1.18998e-08 8.4271e-09 2.90554 0.965183 0.102902 -5.53014e-10 1.18998e-08 8.4271e-09 10.2786 0.731801 0.0259123 -5.53031e-10 1.18998e-08 8.42711e-09 2.22167 -0.733487 -0.20892 1.08455e-12 -2.15721e-12 1.22123e-12 -35.6068 -44.4185 -76.8562 15.6686 -8.38292 -28.9761 0.0686398 -7.45432 1.05365 4.23254e-10 -1.39602e-08 8.7179e-12 7.04331e-10 -2.41846e-08 4.03501e-11 4.23238e-10 -1.39602e-08 8.73062e-12 -7.73091 5.47488 -0.417314 4.23255e-10 -1.39602e-08 8.71472e-12 -2.90554 0.965183 -0.102902 4.2325e-10 -1.39602e-08 8.71074e-12 -10.2786 0.731801 -0.0259123 4.23259e-10 -1.39602e-08 8.70518e-12 -2.22167 -0.733487 0.20892 -2.03217e-16 0.0 -3.88251e-19 -7.79022 3.77369 1.07427 -0.052774 14.6587 0.0359589 12.8406 19.6422 -37.5527 2.03217e-16 0.0 3.88251e-19 107.59 -44.6585 48.621 0.0406342 17.812 -0.415502 4.10945 -28.7772 8.90049
38.9251 92.0716 -72.8919 -42.5753 26.4101 104.042 -7.02626 4.34973 -5.45684 -5.0474 -5.00627 -1.85319 -1.22048 14.4852 -5.38933 -8.9711 -76.841 -22.5973 -0.0 0.0 0.0 -0.0 0.0 0.0 6.88103e-13 -1.71337e-12 9.8828e-13 2.47341 -64.2001 64.7362 -20.6389 -13.8369 40.2551 -0.0227725 3.45019 0.485618 -6.83751e-10 7.73775e-09 6.06537e-09 -1.18889e-09 1.3379e-08 1.05134e-08 -6.83745e-10 7.73774e-09 6.06535e-09 7.73091 5.47488 0.417314 -6.83751e-10 7.73774e-09 6.06537e-09 2.90554 0.965183 0.102902 -6.83745e-10 7.73774e-09 6.06537e-09 10.2786 0.731801 0.0259123 -6.83762e-10 7.73774e-09 6.06538e-09 2.22167 -0.733487 -0.20892 6.87874e-13 -1.71338e-12 9.87989e-13 -38.521 -44.6714 -81.2682 15.2639 -8.04007 -28.0934 0.00294529 -3.52523 0.499879 2.66151e-10 -1.05482e-08 4.56453e-10 4.39932e-10 -1.82759e-08 8.0895e-10 2.66137e-10 -1.05482e-08 4.56466e-10 -7.73091 5.47488 -0.417314 2.66152e-10 -1.05482e-08 4.56449e-10 -2.90554 0.965183 -0.102902 2.66147e-10 -1.05482e-08 4.56444e-10 -10.2786 0.731801 -0.0259123 2.66156e-10 -1.05482e-08 4.56439e-10 -2.22167 -0.733487 0.20892 -2.03217e-16 0.0 -3.88251e-19 -8.11993 5.2021 1.2856 -0.0479713 14.1844 0.100836 13.6252 20.3761 -37.8605 2.03217e-16 0.0 3.88251e-19 105.884 -52.267 66.7468 0.0241083 14.2254 0.00928184 2.39145 -9.71125 11.8569
